<svg width="16" height="17" viewBox="0 0 16 17" fill="none" xmlns="http://www.w3.org/2000/svg">
<path fill-rule="evenodd" clip-rule="evenodd" d="M1.99992 10.2333C2.36811 10.2333 2.66659 10.5318 2.66659 10.9V13.5667C2.66659 13.7435 2.73682 13.9131 2.86185 14.0381C2.98687 14.1631 3.15644 14.2333 3.33325 14.2333H12.6666C12.8434 14.2333 13.013 14.1631 13.138 14.0381C13.263 13.9131 13.3333 13.7435 13.3333 13.5667V10.9C13.3333 10.5318 13.6317 10.2333 13.9999 10.2333C14.3681 10.2333 14.6666 10.5318 14.6666 10.9V13.5667C14.6666 14.0971 14.4559 14.6058 14.0808 14.9809C13.7057 15.356 13.197 15.5667 12.6666 15.5667H3.33325C2.80282 15.5667 2.29411 15.356 1.91904 14.9809C1.54397 14.6058 1.33325 14.0971 1.33325 13.5667V10.9C1.33325 10.5318 1.63173 10.2333 1.99992 10.2333Z" fill="#DDFFDC"/>
<path fill-rule="evenodd" clip-rule="evenodd" d="M4.19526 7.09529C4.45561 6.83494 4.87772 6.83494 5.13807 7.09529L8 9.95722L10.8619 7.09529C11.1223 6.83494 11.5444 6.83494 11.8047 7.09529C12.0651 7.35564 12.0651 7.77775 11.8047 8.0381L8.4714 11.3714C8.21106 11.6318 7.78894 11.6318 7.5286 11.3714L4.19526 8.0381C3.93491 7.77775 3.93491 7.35564 4.19526 7.09529Z" fill="#DDFFDC"/>
<path fill-rule="evenodd" clip-rule="evenodd" d="M7.99992 2.23334C8.36811 2.23334 8.66659 2.53181 8.66659 2.9V10.9C8.66659 11.2682 8.36811 11.5667 7.99992 11.5667C7.63173 11.5667 7.33325 11.2682 7.33325 10.9V2.9C7.33325 2.53181 7.63173 2.23334 7.99992 2.23334Z" fill="#DDFFDC"/>
</svg>
