<svg width="20" height="21" viewBox="0 0 20 21" fill="none" xmlns="http://www.w3.org/2000/svg">
<g clip-path="url(#clip0_496_45)">
<path d="M12.5 19.2333V15.9C12.6159 14.8561 12.3166 13.8084 11.6667 12.9833C14.1667 12.9833 16.6667 11.3167 16.6667 8.39998C16.7333 7.35832 16.4417 6.33332 15.8333 5.48332C16.0667 4.52498 16.0667 3.52498 15.8333 2.56665C15.8333 2.56665 15 2.56665 13.3333 3.81665C11.1333 3.39998 8.86666 3.39998 6.66666 3.81665C4.99999 2.56665 4.16666 2.56665 4.16666 2.56665C3.91666 3.52498 3.91666 4.52498 4.16666 5.48332C3.55988 6.32989 3.26538 7.36064 3.33332 8.39998C3.33332 11.3167 5.83332 12.9833 8.33332 12.9833C8.00832 13.3917 7.76666 13.8583 7.62499 14.3583C7.48332 14.8583 7.44166 15.3833 7.49999 15.9V19.2333" stroke="#DDFFDC" stroke-width="1.66667" stroke-linecap="round" stroke-linejoin="round"/>
<path d="M7.49996 15.9C3.74163 17.5667 3.33329 14.2333 1.66663 14.2333" stroke="#DDFFDC" stroke-width="1.66667" stroke-linecap="round" stroke-linejoin="round"/>
</g>
<defs>
<clipPath id="clip0_496_45">
<rect width="20" height="20" fill="white" transform="translate(0 0.899994)"/>
</clipPath>
</defs>
</svg>
