<svg width="404" height="211" viewBox="0 0 404 211" fill="none" xmlns="http://www.w3.org/2000/svg">
<path d="M163.477 4.39583L201.633 70.3333L123.035 206.604C121.453 209.242 118.64 211 115.475 211H44.4379C42.8554 211 41.2729 210.648 40.042 209.769C38.8112 209.066 37.5804 207.835 36.877 206.604L1.35875 145.062C-0.22375 142.425 -0.22375 138.908 1.35875 136.271L77.4946 4.39583C78.1979 2.98917 79.4288 1.93416 80.6596 1.23083C81.8904 0.527495 83.473 0 85.0555 0H156.092C159.257 0 162.07 1.75833 163.653 4.39583H163.477ZM402.083 136.271L325.947 4.39583C325.244 2.98917 324.013 1.93416 322.782 1.23083C321.551 0.527495 319.969 0 318.386 0H247.35C244.185 0 241.371 1.75833 239.789 4.39583L201.633 70.3333L280.23 206.604C281.813 209.242 284.626 211 287.791 211H358.828C360.41 211 361.993 210.648 363.224 209.769C364.455 209.066 365.685 207.835 366.389 206.604L401.907 145.062C403.49 142.425 403.49 138.908 401.907 136.271H402.083Z" fill="#62DE61"/>
<path d="M120.396 70.3333H201.631L163.475 4.39583C161.892 1.75833 159.079 0 155.914 0H84.8773C83.2948 0 81.7123 0.351661 80.4814 1.23083L120.396 70.3333Z" fill="url(#paint0_linear_219_57)"/>
<path d="M120.402 70.3346L80.4877 1.23206C79.2569 1.93539 78.0261 3.16623 77.3227 4.39706L1.18688 136.272C-0.395625 138.91 -0.395625 142.426 1.18688 145.064L36.7053 206.605C37.4086 208.012 38.6395 209.067 39.8703 209.77L120.402 70.3346Z" fill="url(#paint1_linear_219_57)"/>
<path d="M201.638 70.3334H120.403L39.8711 209.769C41.1019 210.473 42.6844 211 44.2669 211H115.303C118.468 211 121.282 209.242 122.864 206.604L201.462 70.3334H201.638Z" fill="#09AF58"/>
<path d="M402.094 145.062C402.798 143.656 403.325 142.249 403.325 140.667H323.497L283.583 209.769C284.814 210.472 286.396 211 287.979 211H359.015C362.18 211 364.994 209.242 366.576 206.604L402.094 145.062Z" fill="#09AF58"/>
<path d="M247.18 0C245.598 0 244.015 0.351661 242.784 1.23083L323.316 140.667H403.144C403.144 139.084 402.793 137.677 401.913 136.271L325.778 4.39583C324.195 1.75833 321.382 0 318.217 0H247.18Z" fill="url(#paint2_linear_219_57)"/>
<path d="M283.391 209.77L323.305 140.668L242.773 1.23206C241.542 1.93539 240.311 3.16623 239.608 4.39706L201.452 70.3346L280.05 206.605C280.753 208.012 281.984 209.067 283.215 209.77H283.391Z" fill="url(#paint3_linear_219_57)"/>
<defs>
<linearGradient id="paint0_linear_219_57" x1="171.036" y1="-316.5" x2="110.901" y2="-316.5" gradientUnits="userSpaceOnUse">
<stop stop-color="#BFF9B4"/>
<stop offset="1" stop-color="#80EE64"/>
</linearGradient>
<linearGradient id="paint1_linear_219_57" x1="9.45105" y1="192.187" x2="109.852" y2="18.1121" gradientUnits="userSpaceOnUse">
<stop stop-color="#80EE64"/>
<stop offset="0.18" stop-color="#7BEB63"/>
<stop offset="0.36" stop-color="#6FE562"/>
<stop offset="0.55" stop-color="#5ADA60"/>
<stop offset="0.74" stop-color="#3DCA5D"/>
<stop offset="0.93" stop-color="#18B759"/>
<stop offset="1" stop-color="#09AF58"/>
</linearGradient>
<linearGradient id="paint2_linear_219_57" x1="373.78" y1="157.722" x2="273.379" y2="-16.3526" gradientUnits="userSpaceOnUse">
<stop stop-color="#BFF9B4"/>
<stop offset="1" stop-color="#80EE64"/>
</linearGradient>
<linearGradient id="paint3_linear_219_57" x1="312.93" y1="192.89" x2="212.354" y2="18.8154" gradientUnits="userSpaceOnUse">
<stop stop-color="#80EE64"/>
<stop offset="0.18" stop-color="#7BEB63"/>
<stop offset="0.36" stop-color="#6FE562"/>
<stop offset="0.55" stop-color="#5ADA60"/>
<stop offset="0.74" stop-color="#3DCA5D"/>
<stop offset="0.93" stop-color="#18B759"/>
<stop offset="1" stop-color="#09AF58"/>
</linearGradient>
</defs>
</svg>
