<svg width="34" height="19" viewBox="0 0 34 19" fill="none" xmlns="http://www.w3.org/2000/svg">
<path fill-rule="evenodd" clip-rule="evenodd" d="M6.82955 0.600006H13.8792L17.3233 6.69543L10.5736 18.6H3.52273L0 12.4282L6.82955 0.600006ZM7.11797 2.13859L1.17505 12.4311L3.81607 17.0583L9.69216 6.69458L7.11797 2.13859ZM10.5736 7.20625L4.6932 17.5775H9.98182L15.8621 7.20625H10.5736ZM15.8637 6.18376H10.574L7.99687 1.62254H13.2865L15.8637 6.18376Z" fill="#DDFFDC"/>
<path fill-rule="evenodd" clip-rule="evenodd" d="M33.6987 12.4705L30.1325 18.6L23.074 18.5483L16.1047 6.73041L19.6714 0.599998L26.8367 0.621443L33.6987 12.4705ZM32.2108 11.9523L26.2396 1.64164L20.8678 1.62556L26.9349 11.9138L32.2108 11.9523ZM26.0428 12.4243L19.9713 2.12867L17.2959 6.72699L23.3675 17.0227L26.0428 12.4243ZM24.2586 17.5349L26.9344 12.9358L32.2163 12.9744L29.5406 17.5734L24.2586 17.5349Z" fill="#DDFFDC"/>
</svg>
