<svg width="34" height="19" viewBox="0 0 34 19" fill="none" xmlns="http://www.w3.org/2000/svg">
<path fill-rule="evenodd" clip-rule="evenodd" d="M6.82955 0.5H13.8792L17.3233 6.59543L10.5736 18.5H3.52273L0 12.3282L6.82955 0.5ZM7.11797 2.03858L1.17505 12.3311L3.81607 16.9583L9.69216 6.59457L7.11797 2.03858ZM10.5736 7.10624L4.6932 17.4775H9.98182L15.8621 7.10624H10.5736ZM15.8637 6.08376H10.574L7.99687 1.52253H13.2865L15.8637 6.08376Z" fill="#DDFFDC"/>
<path fill-rule="evenodd" clip-rule="evenodd" d="M33.6988 12.3705L30.1327 18.5L23.0741 18.4483L16.1049 6.63042L19.6716 0.5L26.8368 0.521445L33.6988 12.3705ZM32.2109 11.8523L26.2397 1.54164L20.8679 1.52557L26.935 11.8138L32.2109 11.8523ZM26.0429 12.3243L19.9714 2.02867L17.2961 6.62699L23.3676 16.9227L26.0429 12.3243ZM24.2588 17.4349L26.9345 12.8358L32.2164 12.8744L29.5407 17.4734L24.2588 17.4349Z" fill="#DDFFDC"/>
</svg>
