<svg width="216" height="31" viewBox="0 0 216 31" fill="none" xmlns="http://www.w3.org/2000/svg">
<mask id="path-1-outside-1_497_229" maskUnits="userSpaceOnUse" x="0" y="0" width="216" height="31" fill="black">
<rect fill="white" width="216" height="31"/>
<path d="M10.6 1H17V2.6H10.6V1ZM7.4 21.8H5.8V20.2H4.2V17H2.6V9H4.2V5.8H5.8V4.2H7.4V2.6H10.6V4.2H9V5.8H7.4V9H5.8V17H7.4V20.2H9V21.8H15.4V23.4H7.4V21.8ZM18.6 21.8H15.4V20.2H17V18.6H18.6V15.4H20.2V7.4H18.6V4.2H17V2.6H20.2V4.2H21.8V7.4H23.4V15.4H21.8V18.6H20.2V20.2H18.6V21.8ZM5.8 23.4H7.4V25H5.8V23.4ZM2.6 25H5.8V26.6H7.4V28.2H4.2V29.8H1V26.6H2.6V25ZM20.2 25H21.8V28.2H20.2V29.8H15.4V28.2H13.8V26.6H20.2V25ZM7.4 25H13.8V26.6H7.4V25Z"/>
<path d="M25.96 15.4H33.96V17H25.96V15.4Z"/>
<path d="M46.1075 4.2H47.7075V7.4H46.1075V4.2ZM44.5075 7.4H46.1075V10.6H44.5075V7.4ZM42.9075 10.6H44.5075V13.8H42.9075V10.6ZM42.9075 15.4H50.9075V10.6H49.3075V4.2H47.7075V1H50.9075V4.2H52.5075V10.6H54.1075V17H55.7075V21.8H58.9075V23.4H49.3075V21.8H52.5075V17H41.3075V13.8H42.9075V15.4ZM39.7075 17H41.3075V20.2H39.7075V17ZM34.9075 21.8H38.1075V20.2H39.7075V21.8H42.9075V23.4H34.9075V21.8Z"/>
<path d="M59.8675 21.8H61.4675V18.6H63.0675V12.2H64.6675V7.4H66.2675V2.6H64.6675V1H79.0675V2.6H80.6675V9H79.0675V10.6H77.4675V12.2H75.8675V9H77.4675V4.2H75.8675V2.6H69.4675V7.4H67.8675V12.2H66.2675V13.8H71.0675V15.4H72.6675V17H74.2675V18.6H75.8675V20.2H77.4675V21.8H79.0675V23.4H74.2675V21.8H72.6675V20.2H71.0675V18.6H69.4675V17H67.8675V15.4H66.2675V18.6H64.6675V21.8H66.2675V23.4H59.8675V21.8ZM71.0675 12.2H75.8675V13.8H71.0675V12.2Z"/>
<path d="M84.8275 21.8H86.4275V18.6H88.0275V13.8H89.6275V7.4H91.2275V2.6H86.4275V4.2H84.8275V1H102.428V4.2H100.827V2.6H94.4275V7.4H92.8275V13.8H91.2275V18.6H89.6275V21.8H91.2275V23.4H84.8275V21.8ZM83.2275 4.2H84.8275V5.8H83.2275V4.2ZM99.2275 4.2H100.827V5.8H99.2275V4.2Z"/>
<path d="M118.76 1H126.76V2.6H128.36V1H129.96V9H128.36V5.8H126.76V4.2H125.16V2.6H118.76V1ZM113.96 17H115.56V20.2H117.16V21.8H113.96V20.2H112.36V17H110.76V9H112.36V5.8H113.96V4.2H115.56V2.6H118.76V4.2H117.16V5.8H115.56V9H113.96V17ZM126.76 17H128.36V18.6H126.76V17ZM125.16 18.6H126.76V20.2H125.16V18.6ZM121.96 20.2H125.16V21.8H121.96V20.2ZM117.16 23.4V21.8H121.96V23.4H117.16Z"/>
<path d="M138.933 1H145.333V2.6H138.933V1ZM146.933 21.8H143.732V20.2H145.333V18.6H146.933V15.4H148.533V7.4H146.933V4.2H145.333V2.6H148.533V4.2H150.133V7.4H151.733V15.4H150.133V18.6H148.533V20.2H146.933V21.8ZM134.133 17H135.732V20.2H137.333V21.8H134.133V20.2H132.533V17H130.933V9H132.533V5.8H134.133V4.2H135.732V2.6H138.933V4.2H137.333V5.8H135.732V9H134.133V17ZM143.732 23.4H137.333V21.8H143.732V23.4Z"/>
<path d="M152.699 21.8H154.299V18.6H155.899V13.8H157.499V7.4H159.099V2.6H157.499V1H170.299V2.6H171.899V4.2H173.499V7.4H175.099V13.8H173.499V18.6H171.899V20.2H170.299V21.8H167.099V20.2H168.699V18.6H170.299V13.8H171.899V7.4H170.299V4.2H168.699V2.6H162.299V7.4H160.699V13.8H159.099V18.6H157.499V21.8H167.099V23.4H152.699V21.8Z"/>
<path d="M192.059 18.6H193.659V20.2H192.059V18.6ZM176.059 21.8H177.659V17H179.259V12.2H180.859V7.4H182.459V2.6H180.859V1H196.859V5.8H195.259V4.2H193.659V2.6H185.659V7.4H184.059V12.2H188.859V10.6H190.459V15.4H188.859V13.8H182.459V17H180.859V21.8H190.459V20.2H192.059V23.4H176.059V21.8Z"/>
<path d="M213.825 1H215.425V4.2H213.825V1ZM202.625 21.8H209.025V20.2H210.625V17H209.025V15.4H207.425V13.8H205.825V12.2H204.225V10.6H202.625V9H201.025V4.2H202.625V2.6H204.225V1H210.625V2.6H205.825V4.2H204.225V7.4H205.825V9H207.425V10.6H209.025V12.2H210.625V13.8H212.225V15.4H213.825V20.2H212.225V21.8H210.625V23.4H202.625V21.8ZM210.625 2.6H212.225V4.2H210.625V2.6ZM212.225 4.2H213.825V7.4H212.225V4.2ZM199.425 17H201.025V20.2H199.425V17ZM197.825 20.2H199.425V23.4H197.825V20.2ZM201.025 20.2H202.625V21.8H201.025V20.2Z"/>
</mask>
<path d="M10.6 1H17V2.6H10.6V1ZM7.4 21.8H5.8V20.2H4.2V17H2.6V9H4.2V5.8H5.8V4.2H7.4V2.6H10.6V4.2H9V5.8H7.4V9H5.8V17H7.4V20.2H9V21.8H15.4V23.4H7.4V21.8ZM18.6 21.8H15.4V20.2H17V18.6H18.6V15.4H20.2V7.4H18.6V4.2H17V2.6H20.2V4.2H21.8V7.4H23.4V15.4H21.8V18.6H20.2V20.2H18.6V21.8ZM5.8 23.4H7.4V25H5.8V23.4ZM2.6 25H5.8V26.6H7.4V28.2H4.2V29.8H1V26.6H2.6V25ZM20.2 25H21.8V28.2H20.2V29.8H15.4V28.2H13.8V26.6H20.2V25ZM7.4 25H13.8V26.6H7.4V25Z" fill="#7FEE64"/>
<path d="M25.96 15.4H33.96V17H25.96V15.4Z" fill="#7FEE64"/>
<path d="M46.1075 4.2H47.7075V7.4H46.1075V4.2ZM44.5075 7.4H46.1075V10.6H44.5075V7.4ZM42.9075 10.6H44.5075V13.8H42.9075V10.6ZM42.9075 15.4H50.9075V10.6H49.3075V4.2H47.7075V1H50.9075V4.2H52.5075V10.6H54.1075V17H55.7075V21.8H58.9075V23.4H49.3075V21.8H52.5075V17H41.3075V13.8H42.9075V15.4ZM39.7075 17H41.3075V20.2H39.7075V17ZM34.9075 21.8H38.1075V20.2H39.7075V21.8H42.9075V23.4H34.9075V21.8Z" fill="#7FEE64"/>
<path d="M59.8675 21.8H61.4675V18.6H63.0675V12.2H64.6675V7.4H66.2675V2.6H64.6675V1H79.0675V2.6H80.6675V9H79.0675V10.6H77.4675V12.2H75.8675V9H77.4675V4.2H75.8675V2.6H69.4675V7.4H67.8675V12.2H66.2675V13.8H71.0675V15.4H72.6675V17H74.2675V18.6H75.8675V20.2H77.4675V21.8H79.0675V23.4H74.2675V21.8H72.6675V20.2H71.0675V18.6H69.4675V17H67.8675V15.4H66.2675V18.6H64.6675V21.8H66.2675V23.4H59.8675V21.8ZM71.0675 12.2H75.8675V13.8H71.0675V12.2Z" fill="#7FEE64"/>
<path d="M84.8275 21.8H86.4275V18.6H88.0275V13.8H89.6275V7.4H91.2275V2.6H86.4275V4.2H84.8275V1H102.428V4.2H100.827V2.6H94.4275V7.4H92.8275V13.8H91.2275V18.6H89.6275V21.8H91.2275V23.4H84.8275V21.8ZM83.2275 4.2H84.8275V5.8H83.2275V4.2ZM99.2275 4.2H100.827V5.8H99.2275V4.2Z" fill="#7FEE64"/>
<path d="M118.76 1H126.76V2.6H128.36V1H129.96V9H128.36V5.8H126.76V4.2H125.16V2.6H118.76V1ZM113.96 17H115.56V20.2H117.16V21.8H113.96V20.2H112.36V17H110.76V9H112.36V5.8H113.96V4.2H115.56V2.6H118.76V4.2H117.16V5.8H115.56V9H113.96V17ZM126.76 17H128.36V18.6H126.76V17ZM125.16 18.6H126.76V20.2H125.16V18.6ZM121.96 20.2H125.16V21.8H121.96V20.2ZM117.16 23.4V21.8H121.96V23.4H117.16Z" fill="#7FEE64"/>
<path d="M138.933 1H145.333V2.6H138.933V1ZM146.933 21.8H143.732V20.2H145.333V18.6H146.933V15.4H148.533V7.4H146.933V4.2H145.333V2.6H148.533V4.2H150.133V7.4H151.733V15.4H150.133V18.6H148.533V20.2H146.933V21.8ZM134.133 17H135.732V20.2H137.333V21.8H134.133V20.2H132.533V17H130.933V9H132.533V5.8H134.133V4.2H135.732V2.6H138.933V4.2H137.333V5.8H135.732V9H134.133V17ZM143.732 23.4H137.333V21.8H143.732V23.4Z" fill="#7FEE64"/>
<path d="M152.699 21.8H154.299V18.6H155.899V13.8H157.499V7.4H159.099V2.6H157.499V1H170.299V2.6H171.899V4.2H173.499V7.4H175.099V13.8H173.499V18.6H171.899V20.2H170.299V21.8H167.099V20.2H168.699V18.6H170.299V13.8H171.899V7.4H170.299V4.2H168.699V2.6H162.299V7.4H160.699V13.8H159.099V18.6H157.499V21.8H167.099V23.4H152.699V21.8Z" fill="#7FEE64"/>
<path d="M192.059 18.6H193.659V20.2H192.059V18.6ZM176.059 21.8H177.659V17H179.259V12.2H180.859V7.4H182.459V2.6H180.859V1H196.859V5.8H195.259V4.2H193.659V2.6H185.659V7.4H184.059V12.2H188.859V10.6H190.459V15.4H188.859V13.8H182.459V17H180.859V21.8H190.459V20.2H192.059V23.4H176.059V21.8Z" fill="#7FEE64"/>
<path d="M213.825 1H215.425V4.2H213.825V1ZM202.625 21.8H209.025V20.2H210.625V17H209.025V15.4H207.425V13.8H205.825V12.2H204.225V10.6H202.625V9H201.025V4.2H202.625V2.6H204.225V1H210.625V2.6H205.825V4.2H204.225V7.4H205.825V9H207.425V10.6H209.025V12.2H210.625V13.8H212.225V15.4H213.825V20.2H212.225V21.8H210.625V23.4H202.625V21.8ZM210.625 2.6H212.225V4.2H210.625V2.6ZM212.225 4.2H213.825V7.4H212.225V4.2ZM199.425 17H201.025V20.2H199.425V17ZM197.825 20.2H199.425V23.4H197.825V20.2ZM201.025 20.2H202.625V21.8H201.025V20.2Z" fill="#7FEE64"/>
<path d="M10.6 1V0.7H10.3V1H10.6ZM17 1H17.3V0.7H17V1ZM7.4 21.8H7.7V21.5H7.4V21.8ZM5.8 21.8H5.5V22.1H5.8V21.8ZM5.8 20.2H6.1V19.9H5.8V20.2ZM4.2 20.2H3.9V20.5H4.2V20.2ZM4.2 17H4.5V16.7H4.2V17ZM2.6 17H2.3V17.3H2.6V17ZM2.6 9V8.7H2.3V9H2.6ZM4.2 9V9.3H4.5V9H4.2ZM4.2 5.8V5.5H3.9V5.8H4.2ZM5.8 5.8V6.1H6.1V5.8H5.8ZM5.8 4.2V3.9H5.5V4.2H5.8ZM7.4 4.2V4.5H7.7V4.2H7.4ZM7.4 2.6V2.3H7.1V2.6H7.4ZM10.6 4.2V4.5H10.9V4.2H10.6ZM9 4.2V3.9H8.7V4.2H9ZM9 5.8V6.1H9.3V5.8H9ZM7.4 5.8V5.5H7.1V5.8H7.4ZM7.4 9V9.3H7.7V9H7.4ZM5.8 9V8.7H5.5V9H5.8ZM5.8 17H5.5V17.3H5.8V17ZM7.4 17H7.7V16.7H7.4V17ZM7.4 20.2H7.1V20.5H7.4V20.2ZM9 20.2H9.3V19.9H9V20.2ZM9 21.8H8.7V22.1H9V21.8ZM15.4 23.4V23.7H15.7V23.4H15.4ZM18.6 21.8V22.1H18.9V21.8H18.6ZM15.4 20.2V19.9H15.1V20.2H15.4ZM17 20.2V20.5H17.3V20.2H17ZM17 18.6V18.3H16.7V18.6H17ZM18.6 18.6V18.9H18.9V18.6H18.6ZM18.6 15.4V15.1H18.3V15.4H18.6ZM20.2 15.4V15.7H20.5V15.4H20.2ZM20.2 7.4H20.5V7.1H20.2V7.4ZM18.6 7.4H18.3V7.7H18.6V7.4ZM18.6 4.2H18.9V3.9H18.6V4.2ZM17 4.2H16.7V4.5H17V4.2ZM20.2 2.6H20.5V2.3H20.2V2.6ZM20.2 4.2H19.9V4.5H20.2V4.2ZM21.8 4.2H22.1V3.9H21.8V4.2ZM21.8 7.4H21.5V7.7H21.8V7.4ZM23.4 7.4H23.7V7.1H23.4V7.4ZM23.4 15.4V15.7H23.7V15.4H23.4ZM21.8 15.4V15.1H21.5V15.4H21.8ZM21.8 18.6V18.9H22.1V18.6H21.8ZM20.2 18.6V18.3H19.9V18.6H20.2ZM20.2 20.2V20.5H20.5V20.2H20.2ZM18.6 20.2V19.9H18.3V20.2H18.6ZM5.8 23.4V23.1H5.5V23.4H5.8ZM2.6 25V24.7H2.3V25H2.6ZM5.8 26.6H5.5V26.9H5.8V26.6ZM7.4 28.2V28.5H7.7V28.2H7.4ZM4.2 28.2V27.9H3.9V28.2H4.2ZM4.2 29.8V30.1H4.5V29.8H4.2ZM1 29.8H0.7V30.1H1V29.8ZM1 26.6V26.3H0.7V26.6H1ZM2.6 26.6V26.9H2.9V26.6H2.6ZM20.2 25V24.7H19.9V25H20.2ZM21.8 25H22.1V24.7H21.8V25ZM21.8 28.2V28.5H22.1V28.2H21.8ZM20.2 28.2V27.9H19.9V28.2H20.2ZM20.2 29.8V30.1H20.5V29.8H20.2ZM15.4 29.8H15.1V30.1H15.4V29.8ZM15.4 28.2H15.7V27.9H15.4V28.2ZM13.8 28.2H13.5V28.5H13.8V28.2ZM20.2 26.6V26.9H20.5V26.6H20.2ZM13.8 25H14.1V24.7H13.8V25ZM25.96 15.4V15.1H25.66V15.4H25.96ZM33.96 15.4H34.26V15.1H33.96V15.4ZM33.96 17V17.3H34.26V17H33.96ZM25.96 17H25.66V17.3H25.96V17ZM46.1075 4.2V3.9H45.8075V4.2H46.1075ZM47.7075 7.4V7.7H48.0075V7.4H47.7075ZM44.5075 7.4V7.1H44.2075V7.4H44.5075ZM46.1075 10.6V10.9H46.4075V10.6H46.1075ZM42.9075 10.6V10.3H42.6075V10.6H42.9075ZM44.5075 13.8V14.1H44.8075V13.8H44.5075ZM42.9075 15.4H42.6075V15.7H42.9075V15.4ZM50.9075 15.4V15.7H51.2075V15.4H50.9075ZM50.9075 10.6H51.2075V10.3H50.9075V10.6ZM49.3075 10.6H49.0075V10.9H49.3075V10.6ZM49.3075 4.2H49.6075V3.9H49.3075V4.2ZM47.7075 1V0.7H47.4075V1H47.7075ZM50.9075 1H51.2075V0.7H50.9075V1ZM50.9075 4.2H50.6075V4.5H50.9075V4.2ZM52.5075 4.2H52.8075V3.9H52.5075V4.2ZM52.5075 10.6H52.2075V10.9H52.5075V10.6ZM54.1075 10.6H54.4075V10.3H54.1075V10.6ZM54.1075 17H53.8075V17.3H54.1075V17ZM55.7075 17H56.0075V16.7H55.7075V17ZM55.7075 21.8H55.4075V22.1H55.7075V21.8ZM58.9075 21.8H59.2075V21.5H58.9075V21.8ZM58.9075 23.4V23.7H59.2075V23.4H58.9075ZM49.3075 23.4H49.0075V23.7H49.3075V23.4ZM49.3075 21.8V21.5H49.0075V21.8H49.3075ZM52.5075 21.8V22.1H52.8075V21.8H52.5075ZM52.5075 17H52.8075V16.7H52.5075V17ZM41.3075 13.8V13.5H41.0075V13.8H41.3075ZM39.7075 17V16.7H39.4075V17H39.7075ZM41.3075 20.2V20.5H41.6075V20.2H41.3075ZM34.9075 21.8V21.5H34.6075V21.8H34.9075ZM38.1075 21.8V22.1H38.4075V21.8H38.1075ZM38.1075 20.2V19.9H37.8075V20.2H38.1075ZM39.7075 21.8H39.4075V22.1H39.7075V21.8ZM42.9075 21.8H43.2075V21.5H42.9075V21.8ZM42.9075 23.4V23.7H43.2075V23.4H42.9075ZM34.9075 23.4H34.6075V23.7H34.9075V23.4ZM59.8675 21.8V21.5H59.5675V21.8H59.8675ZM61.4675 21.8V22.1H61.7675V21.8H61.4675ZM61.4675 18.6V18.3H61.1675V18.6H61.4675ZM63.0675 18.6V18.9H63.3675V18.6H63.0675ZM63.0675 12.2V11.9H62.7675V12.2H63.0675ZM64.6675 12.2V12.5H64.9675V12.2H64.6675ZM64.6675 7.4V7.1H64.3675V7.4H64.6675ZM66.2675 7.4V7.7H66.5675V7.4H66.2675ZM66.2675 2.6H66.5675V2.3H66.2675V2.6ZM64.6675 2.6H64.3675V2.9H64.6675V2.6ZM64.6675 1V0.7H64.3675V1H64.6675ZM79.0675 1H79.3675V0.7H79.0675V1ZM79.0675 2.6H78.7675V2.9H79.0675V2.6ZM80.6675 2.6H80.9675V2.3H80.6675V2.6ZM80.6675 9V9.3H80.9675V9H80.6675ZM79.0675 9V8.7H78.7675V9H79.0675ZM79.0675 10.6V10.9H79.3675V10.6H79.0675ZM77.4675 10.6V10.3H77.1675V10.6H77.4675ZM77.4675 12.2V12.5H77.7675V12.2H77.4675ZM75.8675 9V8.7H75.5675V9H75.8675ZM77.4675 9V9.3H77.7675V9H77.4675ZM77.4675 4.2H77.7675V3.9H77.4675V4.2ZM75.8675 4.2H75.5675V4.5H75.8675V4.2ZM75.8675 2.6H76.1675V2.3H75.8675V2.6ZM69.4675 2.6V2.3H69.1675V2.6H69.4675ZM69.4675 7.4V7.7H69.7675V7.4H69.4675ZM67.8675 7.4V7.1H67.5675V7.4H67.8675ZM67.8675 12.2V12.5H68.1675V12.2H67.8675ZM66.2675 12.2V11.9H65.9675V12.2H66.2675ZM66.2675 13.8H65.9675V14.1H66.2675V13.8ZM71.0675 15.4H70.7675V15.7H71.0675V15.4ZM72.6675 15.4H72.9675V15.1H72.6675V15.4ZM72.6675 17H72.3675V17.3H72.6675V17ZM74.2675 17H74.5675V16.7H74.2675V17ZM74.2675 18.6H73.9675V18.9H74.2675V18.6ZM75.8675 18.6H76.1675V18.3H75.8675V18.6ZM75.8675 20.2H75.5675V20.5H75.8675V20.2ZM77.4675 20.2H77.7675V19.9H77.4675V20.2ZM77.4675 21.8H77.1675V22.1H77.4675V21.8ZM79.0675 21.8H79.3675V21.5H79.0675V21.8ZM79.0675 23.4V23.7H79.3675V23.4H79.0675ZM74.2675 23.4H73.9675V23.7H74.2675V23.4ZM74.2675 21.8H74.5675V21.5H74.2675V21.8ZM72.6675 21.8H72.3675V22.1H72.6675V21.8ZM72.6675 20.2H72.9675V19.9H72.6675V20.2ZM71.0675 20.2H70.7675V20.5H71.0675V20.2ZM71.0675 18.6H71.3675V18.3H71.0675V18.6ZM69.4675 18.6H69.1675V18.9H69.4675V18.6ZM69.4675 17H69.7675V16.7H69.4675V17ZM67.8675 17H67.5675V17.3H67.8675V17ZM67.8675 15.4H68.1675V15.1H67.8675V15.4ZM66.2675 15.4V15.1H65.9675V15.4H66.2675ZM66.2675 18.6V18.9H66.5675V18.6H66.2675ZM64.6675 18.6V18.3H64.3675V18.6H64.6675ZM64.6675 21.8H64.3675V22.1H64.6675V21.8ZM66.2675 21.8H66.5675V21.5H66.2675V21.8ZM66.2675 23.4V23.7H66.5675V23.4H66.2675ZM59.8675 23.4H59.5675V23.7H59.8675V23.4ZM71.0675 12.2V11.9H70.7675V12.2H71.0675ZM75.8675 13.8V14.1H76.1675V13.8H75.8675ZM84.8275 21.8V21.5H84.5275V21.8H84.8275ZM86.4275 21.8V22.1H86.7275V21.8H86.4275ZM86.4275 18.6V18.3H86.1275V18.6H86.4275ZM88.0275 18.6V18.9H88.3275V18.6H88.0275ZM88.0275 13.8V13.5H87.7275V13.8H88.0275ZM89.6275 13.8V14.1H89.9275V13.8H89.6275ZM89.6275 7.4V7.1H89.3275V7.4H89.6275ZM91.2275 7.4V7.7H91.5275V7.4H91.2275ZM91.2275 2.6H91.5275V2.3H91.2275V2.6ZM86.4275 2.6V2.3H86.1275V2.6H86.4275ZM86.4275 4.2V4.5H86.7275V4.2H86.4275ZM84.8275 1V0.7H84.5275V1H84.8275ZM102.428 1H102.728V0.7H102.428V1ZM102.428 4.2V4.5H102.728V4.2H102.428ZM100.827 2.6H101.128V2.3H100.827V2.6ZM94.4275 2.6V2.3H94.1275V2.6H94.4275ZM94.4275 7.4V7.7H94.7275V7.4H94.4275ZM92.8275 7.4V7.1H92.5275V7.4H92.8275ZM92.8275 13.8V14.1H93.1275V13.8H92.8275ZM91.2275 13.8V13.5H90.9275V13.8H91.2275ZM91.2275 18.6V18.9H91.5275V18.6H91.2275ZM89.6275 18.6V18.3H89.3275V18.6H89.6275ZM89.6275 21.8H89.3275V22.1H89.6275V21.8ZM91.2275 21.8H91.5275V21.5H91.2275V21.8ZM91.2275 23.4V23.7H91.5275V23.4H91.2275ZM84.8275 23.4H84.5275V23.7H84.8275V23.4ZM83.2275 4.2V3.9H82.9275V4.2H83.2275ZM84.8275 5.8V6.1H85.1275V5.8H84.8275ZM83.2275 5.8H82.9275V6.1H83.2275V5.8ZM99.2275 4.2V3.9H98.9275V4.2H99.2275ZM100.827 5.8V6.1H101.128V5.8H100.827ZM99.2275 5.8H98.9275V6.1H99.2275V5.8ZM118.76 1V0.7H118.46V1H118.76ZM126.76 1H127.06V0.7H126.76V1ZM126.76 2.6H126.46V2.9H126.76V2.6ZM128.36 2.6V2.9H128.66V2.6H128.36ZM128.36 1V0.7H128.06V1H128.36ZM129.96 1H130.26V0.7H129.96V1ZM129.96 9V9.3H130.26V9H129.96ZM128.36 9H128.06V9.3H128.36V9ZM128.36 5.8H128.66V5.5H128.36V5.8ZM126.76 5.8H126.46V6.1H126.76V5.8ZM126.76 4.2H127.06V3.9H126.76V4.2ZM125.16 4.2H124.86V4.5H125.16V4.2ZM125.16 2.6H125.46V2.3H125.16V2.6ZM113.96 17H113.66V17.3H113.96V17ZM115.56 17H115.86V16.7H115.56V17ZM115.56 20.2H115.26V20.5H115.56V20.2ZM117.16 20.2H117.46V19.9H117.16V20.2ZM113.96 21.8H113.66V22.1H113.96V21.8ZM113.96 20.2H114.26V19.9H113.96V20.2ZM112.36 20.2H112.06V20.5H112.36V20.2ZM112.36 17H112.66V16.7H112.36V17ZM110.76 17H110.46V17.3H110.76V17ZM110.76 9V8.7H110.46V9H110.76ZM112.36 9V9.3H112.66V9H112.36ZM112.36 5.8V5.5H112.06V5.8H112.36ZM113.96 5.8V6.1H114.26V5.8H113.96ZM113.96 4.2V3.9H113.66V4.2H113.96ZM115.56 4.2V4.5H115.86V4.2H115.56ZM115.56 2.6V2.3H115.26V2.6H115.56ZM118.76 4.2V4.5H119.06V4.2H118.76ZM117.16 4.2V3.9H116.86V4.2H117.16ZM117.16 5.8V6.1H117.46V5.8H117.16ZM115.56 5.8V5.5H115.26V5.8H115.56ZM115.56 9V9.3H115.86V9H115.56ZM113.96 9V8.7H113.66V9H113.96ZM126.76 17V16.7H126.46V17H126.76ZM128.36 17H128.66V16.7H128.36V17ZM128.36 18.6V18.9H128.66V18.6H128.36ZM125.16 18.6V18.3H124.86V18.6H125.16ZM126.76 20.2V20.5H127.06V20.2H126.76ZM121.96 20.2V19.9H121.66V20.2H121.96ZM125.16 21.8V22.1H125.46V21.8H125.16ZM117.16 23.4H116.86V23.7H117.16V23.4ZM121.96 23.4V23.7H122.26V23.4H121.96ZM138.933 1V0.7H138.633V1H138.933ZM145.333 1H145.633V0.7H145.333V1ZM146.933 21.8V22.1H147.233V21.8H146.933ZM143.732 20.2V19.9H143.432V20.2H143.732ZM145.333 20.2V20.5H145.633V20.2H145.333ZM145.333 18.6V18.3H145.033V18.6H145.333ZM146.933 18.6V18.9H147.233V18.6H146.933ZM146.933 15.4V15.1H146.633V15.4H146.933ZM148.533 15.4V15.7H148.833V15.4H148.533ZM148.533 7.4H148.833V7.1H148.533V7.4ZM146.933 7.4H146.633V7.7H146.933V7.4ZM146.933 4.2H147.233V3.9H146.933V4.2ZM145.333 4.2H145.033V4.5H145.333V4.2ZM148.533 2.6H148.833V2.3H148.533V2.6ZM148.533 4.2H148.232V4.5H148.533V4.2ZM150.133 4.2H150.433V3.9H150.133V4.2ZM150.133 7.4H149.833V7.7H150.133V7.4ZM151.733 7.4H152.033V7.1H151.733V7.4ZM151.733 15.4V15.7H152.033V15.4H151.733ZM150.133 15.4V15.1H149.833V15.4H150.133ZM150.133 18.6V18.9H150.433V18.6H150.133ZM148.533 18.6V18.3H148.232V18.6H148.533ZM148.533 20.2V20.5H148.833V20.2H148.533ZM146.933 20.2V19.9H146.633V20.2H146.933ZM134.133 17H133.833V17.3H134.133V17ZM135.732 17H136.033V16.7H135.732V17ZM135.732 20.2H135.432V20.5H135.732V20.2ZM137.333 20.2H137.633V19.9H137.333V20.2ZM134.133 21.8H133.833V22.1H134.133V21.8ZM134.133 20.2H134.433V19.9H134.133V20.2ZM132.533 20.2H132.232V20.5H132.533V20.2ZM132.533 17H132.833V16.7H132.533V17ZM130.933 17H130.633V17.3H130.933V17ZM130.933 9V8.7H130.633V9H130.933ZM132.533 9V9.3H132.833V9H132.533ZM132.533 5.8V5.5H132.232V5.8H132.533ZM134.133 5.8V6.1H134.433V5.8H134.133ZM134.133 4.2V3.9H133.833V4.2H134.133ZM135.732 4.2V4.5H136.033V4.2H135.732ZM135.732 2.6V2.3H135.432V2.6H135.732ZM138.933 4.2V4.5H139.233V4.2H138.933ZM137.333 4.2V3.9H137.033V4.2H137.333ZM137.333 5.8V6.1H137.633V5.8H137.333ZM135.732 5.8V5.5H135.432V5.8H135.732ZM135.732 9V9.3H136.033V9H135.732ZM134.133 9V8.7H133.833V9H134.133ZM143.732 23.4V23.7H144.033V23.4H143.732ZM137.333 23.4H137.033V23.7H137.333V23.4ZM152.699 21.8V21.5H152.399V21.8H152.699ZM154.299 21.8V22.1H154.599V21.8H154.299ZM154.299 18.6V18.3H153.999V18.6H154.299ZM155.899 18.6V18.9H156.199V18.6H155.899ZM155.899 13.8V13.5H155.599V13.8H155.899ZM157.499 13.8V14.1H157.799V13.8H157.499ZM157.499 7.4V7.1H157.199V7.4H157.499ZM159.099 7.4V7.7H159.399V7.4H159.099ZM159.099 2.6H159.399V2.3H159.099V2.6ZM157.499 2.6H157.199V2.9H157.499V2.6ZM157.499 1V0.7H157.199V1H157.499ZM170.299 1H170.599V0.7H170.299V1ZM170.299 2.6H169.999V2.9H170.299V2.6ZM171.899 2.6H172.199V2.3H171.899V2.6ZM171.899 4.2H171.599V4.5H171.899V4.2ZM173.499 4.2H173.799V3.9H173.499V4.2ZM173.499 7.4H173.199V7.7H173.499V7.4ZM175.099 7.4H175.399V7.1H175.099V7.4ZM175.099 13.8V14.1H175.399V13.8H175.099ZM173.499 13.8V13.5H173.199V13.8H173.499ZM173.499 18.6V18.9H173.799V18.6H173.499ZM171.899 18.6V18.3H171.599V18.6H171.899ZM171.899 20.2V20.5H172.199V20.2H171.899ZM170.299 20.2V19.9H169.999V20.2H170.299ZM170.299 21.8V22.1H170.599V21.8H170.299ZM167.099 20.2V19.9H166.799V20.2H167.099ZM168.699 20.2V20.5H168.999V20.2H168.699ZM168.699 18.6V18.3H168.399V18.6H168.699ZM170.299 18.6V18.9H170.599V18.6H170.299ZM170.299 13.8V13.5H169.999V13.8H170.299ZM171.899 13.8V14.1H172.199V13.8H171.899ZM171.899 7.4H172.199V7.1H171.899V7.4ZM170.299 7.4H169.999V7.7H170.299V7.4ZM170.299 4.2H170.599V3.9H170.299V4.2ZM168.699 4.2H168.399V4.5H168.699V4.2ZM168.699 2.6H168.999V2.3H168.699V2.6ZM162.299 2.6V2.3H161.999V2.6H162.299ZM162.299 7.4V7.7H162.599V7.4H162.299ZM160.699 7.4V7.1H160.399V7.4H160.699ZM160.699 13.8V14.1H160.999V13.8H160.699ZM159.099 13.8V13.5H158.799V13.8H159.099ZM159.099 18.6V18.9H159.399V18.6H159.099ZM157.499 18.6V18.3H157.199V18.6H157.499ZM157.499 21.8H157.199V22.1H157.499V21.8ZM167.099 23.4V23.7H167.399V23.4H167.099ZM152.699 23.4H152.399V23.7H152.699V23.4ZM192.059 18.6V18.3H191.759V18.6H192.059ZM193.659 18.6H193.959V18.3H193.659V18.6ZM193.659 20.2V20.5H193.959V20.2H193.659ZM176.059 21.8V21.5H175.759V21.8H176.059ZM177.659 21.8V22.1H177.959V21.8H177.659ZM177.659 17V16.7H177.359V17H177.659ZM179.259 17V17.3H179.559V17H179.259ZM179.259 12.2V11.9H178.959V12.2H179.259ZM180.859 12.2V12.5H181.159V12.2H180.859ZM180.859 7.4V7.1H180.559V7.4H180.859ZM182.459 7.4V7.7H182.759V7.4H182.459ZM182.459 2.6H182.759V2.3H182.459V2.6ZM180.859 2.6H180.559V2.9H180.859V2.6ZM180.859 1V0.7H180.559V1H180.859ZM196.859 1H197.159V0.7H196.859V1ZM196.859 5.8V6.1H197.159V5.8H196.859ZM195.259 5.8H194.959V6.1H195.259V5.8ZM195.259 4.2H195.559V3.9H195.259V4.2ZM193.659 4.2H193.359V4.5H193.659V4.2ZM193.659 2.6H193.959V2.3H193.659V2.6ZM185.659 2.6V2.3H185.359V2.6H185.659ZM185.659 7.4V7.7H185.959V7.4H185.659ZM184.059 7.4V7.1H183.759V7.4H184.059ZM184.059 12.2H183.759V12.5H184.059V12.2ZM188.859 12.2V12.5H189.159V12.2H188.859ZM188.859 10.6V10.3H188.559V10.6H188.859ZM190.459 10.6H190.759V10.3H190.459V10.6ZM190.459 15.4V15.7H190.759V15.4H190.459ZM188.859 15.4H188.559V15.7H188.859V15.4ZM188.859 13.8H189.159V13.5H188.859V13.8ZM182.459 13.8V13.5H182.159V13.8H182.459ZM182.459 17V17.3H182.759V17H182.459ZM180.859 17V16.7H180.559V17H180.859ZM180.859 21.8H180.559V22.1H180.859V21.8ZM190.459 21.8V22.1H190.759V21.8H190.459ZM190.459 20.2V19.9H190.159V20.2H190.459ZM192.059 23.4V23.7H192.359V23.4H192.059ZM176.059 23.4H175.759V23.7H176.059V23.4ZM213.825 1V0.7H213.525V1H213.825ZM215.425 1H215.725V0.7H215.425V1ZM215.425 4.2V4.5H215.725V4.2H215.425ZM209.025 21.8V22.1H209.325V21.8H209.025ZM209.025 20.2V19.9H208.725V20.2H209.025ZM210.625 20.2V20.5H210.925V20.2H210.625ZM210.625 17H210.925V16.7H210.625V17ZM209.025 17H208.725V17.3H209.025V17ZM209.025 15.4H209.325V15.1H209.025V15.4ZM207.425 15.4H207.125V15.7H207.425V15.4ZM207.425 13.8H207.725V13.5H207.425V13.8ZM205.825 13.8H205.525V14.1H205.825V13.8ZM205.825 12.2H206.125V11.9H205.825V12.2ZM204.225 12.2H203.925V12.5H204.225V12.2ZM204.225 10.6H204.525V10.3H204.225V10.6ZM202.625 10.6H202.325V10.9H202.625V10.6ZM202.625 9H202.925V8.7H202.625V9ZM201.025 9H200.725V9.3H201.025V9ZM201.025 4.2V3.9H200.725V4.2H201.025ZM202.625 4.2V4.5H202.925V4.2H202.625ZM202.625 2.6V2.3H202.325V2.6H202.625ZM204.225 2.6V2.9H204.525V2.6H204.225ZM204.225 1V0.7H203.925V1H204.225ZM210.625 1H210.925V0.7H210.625V1ZM205.825 2.6V2.3H205.525V2.6H205.825ZM205.825 4.2V4.5H206.125V4.2H205.825ZM204.225 4.2V3.9H203.925V4.2H204.225ZM204.225 7.4H203.925V7.7H204.225V7.4ZM205.825 7.4H206.125V7.1H205.825V7.4ZM205.825 9H205.525V9.3H205.825V9ZM207.425 9H207.725V8.7H207.425V9ZM207.425 10.6H207.125V10.9H207.425V10.6ZM209.025 10.6H209.325V10.3H209.025V10.6ZM209.025 12.2H208.725V12.5H209.025V12.2ZM210.625 12.2H210.925V11.9H210.625V12.2ZM210.625 13.8H210.325V14.1H210.625V13.8ZM212.225 13.8H212.525V13.5H212.225V13.8ZM212.225 15.4H211.925V15.7H212.225V15.4ZM213.825 15.4H214.125V15.1H213.825V15.4ZM213.825 20.2V20.5H214.125V20.2H213.825ZM212.225 20.2V19.9H211.925V20.2H212.225ZM212.225 21.8V22.1H212.525V21.8H212.225ZM210.625 21.8V21.5H210.325V21.8H210.625ZM210.625 23.4V23.7H210.925V23.4H210.625ZM202.625 23.4H202.325V23.7H202.625V23.4ZM212.225 2.6H212.525V2.3H212.225V2.6ZM210.625 4.2H210.325V4.5H210.625V4.2ZM213.825 7.4V7.7H214.125V7.4H213.825ZM212.225 7.4H211.925V7.7H212.225V7.4ZM199.425 17V16.7H199.125V17H199.425ZM201.025 17H201.325V16.7H201.025V17ZM197.825 20.2V19.9H197.525V20.2H197.825ZM199.425 23.4V23.7H199.725V23.4H199.425ZM197.825 23.4H197.525V23.7H197.825V23.4ZM202.625 20.2H202.925V19.9H202.625V20.2ZM201.025 21.8H200.725V22.1H201.025V21.8ZM10.6 1.3H17V0.7H10.6V1.3ZM16.7 1V2.6H17.3V1H16.7ZM17 2.3H10.6V2.9H17V2.3ZM10.9 2.6V1H10.3V2.6H10.9ZM7.4 21.5H5.8V22.1H7.4V21.5ZM6.1 21.8V20.2H5.5V21.8H6.1ZM5.8 19.9H4.2V20.5H5.8V19.9ZM4.5 20.2V17H3.9V20.2H4.5ZM4.2 16.7H2.6V17.3H4.2V16.7ZM2.9 17V9H2.3V17H2.9ZM2.6 9.3H4.2V8.7H2.6V9.3ZM4.5 9V5.8H3.9V9H4.5ZM4.2 6.1H5.8V5.5H4.2V6.1ZM6.1 5.8V4.2H5.5V5.8H6.1ZM5.8 4.5H7.4V3.9H5.8V4.5ZM7.7 4.2V2.6H7.1V4.2H7.7ZM7.4 2.9H10.6V2.3H7.4V2.9ZM10.3 2.6V4.2H10.9V2.6H10.3ZM10.6 3.9H9V4.5H10.6V3.9ZM8.7 4.2V5.8H9.3V4.2H8.7ZM9 5.5H7.4V6.1H9V5.5ZM7.1 5.8V9H7.7V5.8H7.1ZM7.4 8.7H5.8V9.3H7.4V8.7ZM5.5 9V17H6.1V9H5.5ZM5.8 17.3H7.4V16.7H5.8V17.3ZM7.1 17V20.2H7.7V17H7.1ZM7.4 20.5H9V19.9H7.4V20.5ZM8.7 20.2V21.8H9.3V20.2H8.7ZM9 22.1H15.4V21.5H9V22.1ZM15.1 21.8V23.4H15.7V21.8H15.1ZM15.4 23.1H7.4V23.7H15.4V23.1ZM7.7 23.4V21.8H7.1V23.4H7.7ZM18.6 21.5H15.4V22.1H18.6V21.5ZM15.7 21.8V20.2H15.1V21.8H15.7ZM15.4 20.5H17V19.9H15.4V20.5ZM17.3 20.2V18.6H16.7V20.2H17.3ZM17 18.9H18.6V18.3H17V18.9ZM18.9 18.6V15.4H18.3V18.6H18.9ZM18.6 15.7H20.2V15.1H18.6V15.7ZM20.5 15.4V7.4H19.9V15.4H20.5ZM20.2 7.1H18.6V7.7H20.2V7.1ZM18.9 7.4V4.2H18.3V7.4H18.9ZM18.6 3.9H17V4.5H18.6V3.9ZM17.3 4.2V2.6H16.7V4.2H17.3ZM17 2.9H20.2V2.3H17V2.9ZM19.9 2.6V4.2H20.5V2.6H19.9ZM20.2 4.5H21.8V3.9H20.2V4.5ZM21.5 4.2V7.4H22.1V4.2H21.5ZM21.8 7.7H23.4V7.1H21.8V7.7ZM23.1 7.4V15.4H23.7V7.4H23.1ZM23.4 15.1H21.8V15.7H23.4V15.1ZM21.5 15.4V18.6H22.1V15.4H21.5ZM21.8 18.3H20.2V18.9H21.8V18.3ZM19.9 18.6V20.2H20.5V18.6H19.9ZM20.2 19.9H18.6V20.5H20.2V19.9ZM18.3 20.2V21.8H18.9V20.2H18.3ZM5.8 23.7H7.4V23.1H5.8V23.7ZM7.1 23.4V25H7.7V23.4H7.1ZM7.4 24.7H5.8V25.3H7.4V24.7ZM6.1 25V23.4H5.5V25H6.1ZM2.6 25.3H5.8V24.7H2.6V25.3ZM5.5 25V26.6H6.1V25H5.5ZM5.8 26.9H7.4V26.3H5.8V26.9ZM7.1 26.6V28.2H7.7V26.6H7.1ZM7.4 27.9H4.2V28.5H7.4V27.9ZM3.9 28.2V29.8H4.5V28.2H3.9ZM4.2 29.5H1V30.1H4.2V29.5ZM1.3 29.8V26.6H0.7V29.8H1.3ZM1 26.9H2.6V26.3H1V26.9ZM2.9 26.6V25H2.3V26.6H2.9ZM20.2 25.3H21.8V24.7H20.2V25.3ZM21.5 25V28.2H22.1V25H21.5ZM21.8 27.9H20.2V28.5H21.8V27.9ZM19.9 28.2V29.8H20.5V28.2H19.9ZM20.2 29.5H15.4V30.1H20.2V29.5ZM15.7 29.8V28.2H15.1V29.8H15.7ZM15.4 27.9H13.8V28.5H15.4V27.9ZM14.1 28.2V26.6H13.5V28.2H14.1ZM13.8 26.9H20.2V26.3H13.8V26.9ZM20.5 26.6V25H19.9V26.6H20.5ZM7.4 25.3H13.8V24.7H7.4V25.3ZM13.5 25V26.6H14.1V25H13.5ZM13.8 26.3H7.4V26.9H13.8V26.3ZM7.7 26.6V25H7.1V26.6H7.7ZM25.96 15.7H33.96V15.1H25.96V15.7ZM33.66 15.4V17H34.26V15.4H33.66ZM33.96 16.7H25.96V17.3H33.96V16.7ZM26.26 17V15.4H25.66V17H26.26ZM46.1075 4.5H47.7075V3.9H46.1075V4.5ZM47.4075 4.2V7.4H48.0075V4.2H47.4075ZM47.7075 7.1H46.1075V7.7H47.7075V7.1ZM46.4075 7.4V4.2H45.8075V7.4H46.4075ZM44.5075 7.7H46.1075V7.1H44.5075V7.7ZM45.8075 7.4V10.6H46.4075V7.4H45.8075ZM46.1075 10.3H44.5075V10.9H46.1075V10.3ZM44.8075 10.6V7.4H44.2075V10.6H44.8075ZM42.9075 10.9H44.5075V10.3H42.9075V10.9ZM44.2075 10.6V13.8H44.8075V10.6H44.2075ZM44.5075 13.5H42.9075V14.1H44.5075V13.5ZM43.2075 13.8V10.6H42.6075V13.8H43.2075ZM42.9075 15.7H50.9075V15.1H42.9075V15.7ZM51.2075 15.4V10.6H50.6075V15.4H51.2075ZM50.9075 10.3H49.3075V10.9H50.9075V10.3ZM49.6075 10.6V4.2H49.0075V10.6H49.6075ZM49.3075 3.9H47.7075V4.5H49.3075V3.9ZM48.0075 4.2V1H47.4075V4.2H48.0075ZM47.7075 1.3H50.9075V0.7H47.7075V1.3ZM50.6075 1V4.2H51.2075V1H50.6075ZM50.9075 4.5H52.5075V3.9H50.9075V4.5ZM52.2075 4.2V10.6H52.8075V4.2H52.2075ZM52.5075 10.9H54.1075V10.3H52.5075V10.9ZM53.8075 10.6V17H54.4075V10.6H53.8075ZM54.1075 17.3H55.7075V16.7H54.1075V17.3ZM55.4075 17V21.8H56.0075V17H55.4075ZM55.7075 22.1H58.9075V21.5H55.7075V22.1ZM58.6075 21.8V23.4H59.2075V21.8H58.6075ZM58.9075 23.1H49.3075V23.7H58.9075V23.1ZM49.6075 23.4V21.8H49.0075V23.4H49.6075ZM49.3075 22.1H52.5075V21.5H49.3075V22.1ZM52.8075 21.8V17H52.2075V21.8H52.8075ZM52.5075 16.7H41.3075V17.3H52.5075V16.7ZM41.6075 17V13.8H41.0075V17H41.6075ZM41.3075 14.1H42.9075V13.5H41.3075V14.1ZM42.6075 13.8V15.4H43.2075V13.8H42.6075ZM39.7075 17.3H41.3075V16.7H39.7075V17.3ZM41.0075 17V20.2H41.6075V17H41.0075ZM41.3075 19.9H39.7075V20.5H41.3075V19.9ZM40.0075 20.2V17H39.4075V20.2H40.0075ZM34.9075 22.1H38.1075V21.5H34.9075V22.1ZM38.4075 21.8V20.2H37.8075V21.8H38.4075ZM38.1075 20.5H39.7075V19.9H38.1075V20.5ZM39.4075 20.2V21.8H40.0075V20.2H39.4075ZM39.7075 22.1H42.9075V21.5H39.7075V22.1ZM42.6075 21.8V23.4H43.2075V21.8H42.6075ZM42.9075 23.1H34.9075V23.7H42.9075V23.1ZM35.2075 23.4V21.8H34.6075V23.4H35.2075ZM59.8675 22.1H61.4675V21.5H59.8675V22.1ZM61.7675 21.8V18.6H61.1675V21.8H61.7675ZM61.4675 18.9H63.0675V18.3H61.4675V18.9ZM63.3675 18.6V12.2H62.7675V18.6H63.3675ZM63.0675 12.5H64.6675V11.9H63.0675V12.5ZM64.9675 12.2V7.4H64.3675V12.2H64.9675ZM64.6675 7.7H66.2675V7.1H64.6675V7.7ZM66.5675 7.4V2.6H65.9675V7.4H66.5675ZM66.2675 2.3H64.6675V2.9H66.2675V2.3ZM64.9675 2.6V1H64.3675V2.6H64.9675ZM64.6675 1.3H79.0675V0.7H64.6675V1.3ZM78.7675 1V2.6H79.3675V1H78.7675ZM79.0675 2.9H80.6675V2.3H79.0675V2.9ZM80.3675 2.6V9H80.9675V2.6H80.3675ZM80.6675 8.7H79.0675V9.3H80.6675V8.7ZM78.7675 9V10.6H79.3675V9H78.7675ZM79.0675 10.3H77.4675V10.9H79.0675V10.3ZM77.1675 10.6V12.2H77.7675V10.6H77.1675ZM77.4675 11.9H75.8675V12.5H77.4675V11.9ZM76.1675 12.2V9H75.5675V12.2H76.1675ZM75.8675 9.3H77.4675V8.7H75.8675V9.3ZM77.7675 9V4.2H77.1675V9H77.7675ZM77.4675 3.9H75.8675V4.5H77.4675V3.9ZM76.1675 4.2V2.6H75.5675V4.2H76.1675ZM75.8675 2.3H69.4675V2.9H75.8675V2.3ZM69.1675 2.6V7.4H69.7675V2.6H69.1675ZM69.4675 7.1H67.8675V7.7H69.4675V7.1ZM67.5675 7.4V12.2H68.1675V7.4H67.5675ZM67.8675 11.9H66.2675V12.5H67.8675V11.9ZM65.9675 12.2V13.8H66.5675V12.2H65.9675ZM66.2675 14.1H71.0675V13.5H66.2675V14.1ZM70.7675 13.8V15.4H71.3675V13.8H70.7675ZM71.0675 15.7H72.6675V15.1H71.0675V15.7ZM72.3675 15.4V17H72.9675V15.4H72.3675ZM72.6675 17.3H74.2675V16.7H72.6675V17.3ZM73.9675 17V18.6H74.5675V17H73.9675ZM74.2675 18.9H75.8675V18.3H74.2675V18.9ZM75.5675 18.6V20.2H76.1675V18.6H75.5675ZM75.8675 20.5H77.4675V19.9H75.8675V20.5ZM77.1675 20.2V21.8H77.7675V20.2H77.1675ZM77.4675 22.1H79.0675V21.5H77.4675V22.1ZM78.7675 21.8V23.4H79.3675V21.8H78.7675ZM79.0675 23.1H74.2675V23.7H79.0675V23.1ZM74.5675 23.4V21.8H73.9675V23.4H74.5675ZM74.2675 21.5H72.6675V22.1H74.2675V21.5ZM72.9675 21.8V20.2H72.3675V21.8H72.9675ZM72.6675 19.9H71.0675V20.5H72.6675V19.9ZM71.3675 20.2V18.6H70.7675V20.2H71.3675ZM71.0675 18.3H69.4675V18.9H71.0675V18.3ZM69.7675 18.6V17H69.1675V18.6H69.7675ZM69.4675 16.7H67.8675V17.3H69.4675V16.7ZM68.1675 17V15.4H67.5675V17H68.1675ZM67.8675 15.1H66.2675V15.7H67.8675V15.1ZM65.9675 15.4V18.6H66.5675V15.4H65.9675ZM66.2675 18.3H64.6675V18.9H66.2675V18.3ZM64.3675 18.6V21.8H64.9675V18.6H64.3675ZM64.6675 22.1H66.2675V21.5H64.6675V22.1ZM65.9675 21.8V23.4H66.5675V21.8H65.9675ZM66.2675 23.1H59.8675V23.7H66.2675V23.1ZM60.1675 23.4V21.8H59.5675V23.4H60.1675ZM71.0675 12.5H75.8675V11.9H71.0675V12.5ZM75.5675 12.2V13.8H76.1675V12.2H75.5675ZM75.8675 13.5H71.0675V14.1H75.8675V13.5ZM71.3675 13.8V12.2H70.7675V13.8H71.3675ZM84.8275 22.1H86.4275V21.5H84.8275V22.1ZM86.7275 21.8V18.6H86.1275V21.8H86.7275ZM86.4275 18.9H88.0275V18.3H86.4275V18.9ZM88.3275 18.6V13.8H87.7275V18.6H88.3275ZM88.0275 14.1H89.6275V13.5H88.0275V14.1ZM89.9275 13.8V7.4H89.3275V13.8H89.9275ZM89.6275 7.7H91.2275V7.1H89.6275V7.7ZM91.5275 7.4V2.6H90.9275V7.4H91.5275ZM91.2275 2.3H86.4275V2.9H91.2275V2.3ZM86.1275 2.6V4.2H86.7275V2.6H86.1275ZM86.4275 3.9H84.8275V4.5H86.4275V3.9ZM85.1275 4.2V1H84.5275V4.2H85.1275ZM84.8275 1.3H102.428V0.7H84.8275V1.3ZM102.128 1V4.2H102.728V1H102.128ZM102.428 3.9H100.827V4.5H102.428V3.9ZM101.128 4.2V2.6H100.527V4.2H101.128ZM100.827 2.3H94.4275V2.9H100.827V2.3ZM94.1275 2.6V7.4H94.7275V2.6H94.1275ZM94.4275 7.1H92.8275V7.7H94.4275V7.1ZM92.5275 7.4V13.8H93.1275V7.4H92.5275ZM92.8275 13.5H91.2275V14.1H92.8275V13.5ZM90.9275 13.8V18.6H91.5275V13.8H90.9275ZM91.2275 18.3H89.6275V18.9H91.2275V18.3ZM89.3275 18.6V21.8H89.9275V18.6H89.3275ZM89.6275 22.1H91.2275V21.5H89.6275V22.1ZM90.9275 21.8V23.4H91.5275V21.8H90.9275ZM91.2275 23.1H84.8275V23.7H91.2275V23.1ZM85.1275 23.4V21.8H84.5275V23.4H85.1275ZM83.2275 4.5H84.8275V3.9H83.2275V4.5ZM84.5275 4.2V5.8H85.1275V4.2H84.5275ZM84.8275 5.5H83.2275V6.1H84.8275V5.5ZM83.5275 5.8V4.2H82.9275V5.8H83.5275ZM99.2275 4.5H100.827V3.9H99.2275V4.5ZM100.527 4.2V5.8H101.128V4.2H100.527ZM100.827 5.5H99.2275V6.1H100.827V5.5ZM99.5275 5.8V4.2H98.9275V5.8H99.5275ZM118.76 1.3H126.76V0.7H118.76V1.3ZM126.46 1V2.6H127.06V1H126.46ZM126.76 2.9H128.36V2.3H126.76V2.9ZM128.66 2.6V1H128.06V2.6H128.66ZM128.36 1.3H129.96V0.7H128.36V1.3ZM129.66 1V9H130.26V1H129.66ZM129.96 8.7H128.36V9.3H129.96V8.7ZM128.66 9V5.8H128.06V9H128.66ZM128.36 5.5H126.76V6.1H128.36V5.5ZM127.06 5.8V4.2H126.46V5.8H127.06ZM126.76 3.9H125.16V4.5H126.76V3.9ZM125.46 4.2V2.6H124.86V4.2H125.46ZM125.16 2.3H118.76V2.9H125.16V2.3ZM119.06 2.6V1H118.46V2.6H119.06ZM113.96 17.3H115.56V16.7H113.96V17.3ZM115.26 17V20.2H115.86V17H115.26ZM115.56 20.5H117.16V19.9H115.56V20.5ZM116.86 20.2V21.8H117.46V20.2H116.86ZM117.16 21.5H113.96V22.1H117.16V21.5ZM114.26 21.8V20.2H113.66V21.8H114.26ZM113.96 19.9H112.36V20.5H113.96V19.9ZM112.66 20.2V17H112.06V20.2H112.66ZM112.36 16.7H110.76V17.3H112.36V16.7ZM111.06 17V9H110.46V17H111.06ZM110.76 9.3H112.36V8.7H110.76V9.3ZM112.66 9V5.8H112.06V9H112.66ZM112.36 6.1H113.96V5.5H112.36V6.1ZM114.26 5.8V4.2H113.66V5.8H114.26ZM113.96 4.5H115.56V3.9H113.96V4.5ZM115.86 4.2V2.6H115.26V4.2H115.86ZM115.56 2.9H118.76V2.3H115.56V2.9ZM118.46 2.6V4.2H119.06V2.6H118.46ZM118.76 3.9H117.16V4.5H118.76V3.9ZM116.86 4.2V5.8H117.46V4.2H116.86ZM117.16 5.5H115.56V6.1H117.16V5.5ZM115.26 5.8V9H115.86V5.8H115.26ZM115.56 8.7H113.96V9.3H115.56V8.7ZM113.66 9V17H114.26V9H113.66ZM126.76 17.3H128.36V16.7H126.76V17.3ZM128.06 17V18.6H128.66V17H128.06ZM128.36 18.3H126.76V18.9H128.36V18.3ZM127.06 18.6V17H126.46V18.6H127.06ZM125.16 18.9H126.76V18.3H125.16V18.9ZM126.46 18.6V20.2H127.06V18.6H126.46ZM126.76 19.9H125.16V20.5H126.76V19.9ZM125.46 20.2V18.6H124.86V20.2H125.46ZM121.96 20.5H125.16V19.9H121.96V20.5ZM124.86 20.2V21.8H125.46V20.2H124.86ZM125.16 21.5H121.96V22.1H125.16V21.5ZM122.26 21.8V20.2H121.66V21.8H122.26ZM117.46 23.4V21.8H116.86V23.4H117.46ZM117.16 22.1H121.96V21.5H117.16V22.1ZM121.66 21.8V23.4H122.26V21.8H121.66ZM121.96 23.1H117.16V23.7H121.96V23.1ZM138.933 1.3H145.333V0.7H138.933V1.3ZM145.033 1V2.6H145.633V1H145.033ZM145.333 2.3H138.933V2.9H145.333V2.3ZM139.233 2.6V1H138.633V2.6H139.233ZM146.933 21.5H143.732V22.1H146.933V21.5ZM144.033 21.8V20.2H143.432V21.8H144.033ZM143.732 20.5H145.333V19.9H143.732V20.5ZM145.633 20.2V18.6H145.033V20.2H145.633ZM145.333 18.9H146.933V18.3H145.333V18.9ZM147.233 18.6V15.4H146.633V18.6H147.233ZM146.933 15.7H148.533V15.1H146.933V15.7ZM148.833 15.4V7.4H148.232V15.4H148.833ZM148.533 7.1H146.933V7.7H148.533V7.1ZM147.233 7.4V4.2H146.633V7.4H147.233ZM146.933 3.9H145.333V4.5H146.933V3.9ZM145.633 4.2V2.6H145.033V4.2H145.633ZM145.333 2.9H148.533V2.3H145.333V2.9ZM148.232 2.6V4.2H148.833V2.6H148.232ZM148.533 4.5H150.133V3.9H148.533V4.5ZM149.833 4.2V7.4H150.433V4.2H149.833ZM150.133 7.7H151.733V7.1H150.133V7.7ZM151.433 7.4V15.4H152.033V7.4H151.433ZM151.733 15.1H150.133V15.7H151.733V15.1ZM149.833 15.4V18.6H150.433V15.4H149.833ZM150.133 18.3H148.533V18.9H150.133V18.3ZM148.232 18.6V20.2H148.833V18.6H148.232ZM148.533 19.9H146.933V20.5H148.533V19.9ZM146.633 20.2V21.8H147.233V20.2H146.633ZM134.133 17.3H135.732V16.7H134.133V17.3ZM135.432 17V20.2H136.033V17H135.432ZM135.732 20.5H137.333V19.9H135.732V20.5ZM137.033 20.2V21.8H137.633V20.2H137.033ZM137.333 21.5H134.133V22.1H137.333V21.5ZM134.433 21.8V20.2H133.833V21.8H134.433ZM134.133 19.9H132.533V20.5H134.133V19.9ZM132.833 20.2V17H132.232V20.2H132.833ZM132.533 16.7H130.933V17.3H132.533V16.7ZM131.233 17V9H130.633V17H131.233ZM130.933 9.3H132.533V8.7H130.933V9.3ZM132.833 9V5.8H132.232V9H132.833ZM132.533 6.1H134.133V5.5H132.533V6.1ZM134.433 5.8V4.2H133.833V5.8H134.433ZM134.133 4.5H135.732V3.9H134.133V4.5ZM136.033 4.2V2.6H135.432V4.2H136.033ZM135.732 2.9H138.933V2.3H135.732V2.9ZM138.633 2.6V4.2H139.233V2.6H138.633ZM138.933 3.9H137.333V4.5H138.933V3.9ZM137.033 4.2V5.8H137.633V4.2H137.033ZM137.333 5.5H135.732V6.1H137.333V5.5ZM135.432 5.8V9H136.033V5.8H135.432ZM135.732 8.7H134.133V9.3H135.732V8.7ZM133.833 9V17H134.433V9H133.833ZM143.732 23.1H137.333V23.7H143.732V23.1ZM137.633 23.4V21.8H137.033V23.4H137.633ZM137.333 22.1H143.732V21.5H137.333V22.1ZM143.432 21.8V23.4H144.033V21.8H143.432ZM152.699 22.1H154.299V21.5H152.699V22.1ZM154.599 21.8V18.6H153.999V21.8H154.599ZM154.299 18.9H155.899V18.3H154.299V18.9ZM156.199 18.6V13.8H155.599V18.6H156.199ZM155.899 14.1H157.499V13.5H155.899V14.1ZM157.799 13.8V7.4H157.199V13.8H157.799ZM157.499 7.7H159.099V7.1H157.499V7.7ZM159.399 7.4V2.6H158.799V7.4H159.399ZM159.099 2.3H157.499V2.9H159.099V2.3ZM157.799 2.6V1H157.199V2.6H157.799ZM157.499 1.3H170.299V0.7H157.499V1.3ZM169.999 1V2.6H170.599V1H169.999ZM170.299 2.9H171.899V2.3H170.299V2.9ZM171.599 2.6V4.2H172.199V2.6H171.599ZM171.899 4.5H173.499V3.9H171.899V4.5ZM173.199 4.2V7.4H173.799V4.2H173.199ZM173.499 7.7H175.099V7.1H173.499V7.7ZM174.799 7.4V13.8H175.399V7.4H174.799ZM175.099 13.5H173.499V14.1H175.099V13.5ZM173.199 13.8V18.6H173.799V13.8H173.199ZM173.499 18.3H171.899V18.9H173.499V18.3ZM171.599 18.6V20.2H172.199V18.6H171.599ZM171.899 19.9H170.299V20.5H171.899V19.9ZM169.999 20.2V21.8H170.599V20.2H169.999ZM170.299 21.5H167.099V22.1H170.299V21.5ZM167.399 21.8V20.2H166.799V21.8H167.399ZM167.099 20.5H168.699V19.9H167.099V20.5ZM168.999 20.2V18.6H168.399V20.2H168.999ZM168.699 18.9H170.299V18.3H168.699V18.9ZM170.599 18.6V13.8H169.999V18.6H170.599ZM170.299 14.1H171.899V13.5H170.299V14.1ZM172.199 13.8V7.4H171.599V13.8H172.199ZM171.899 7.1H170.299V7.7H171.899V7.1ZM170.599 7.4V4.2H169.999V7.4H170.599ZM170.299 3.9H168.699V4.5H170.299V3.9ZM168.999 4.2V2.6H168.399V4.2H168.999ZM168.699 2.3H162.299V2.9H168.699V2.3ZM161.999 2.6V7.4H162.599V2.6H161.999ZM162.299 7.1H160.699V7.7H162.299V7.1ZM160.399 7.4V13.8H160.999V7.4H160.399ZM160.699 13.5H159.099V14.1H160.699V13.5ZM158.799 13.8V18.6H159.399V13.8H158.799ZM159.099 18.3H157.499V18.9H159.099V18.3ZM157.199 18.6V21.8H157.799V18.6H157.199ZM157.499 22.1H167.099V21.5H157.499V22.1ZM166.799 21.8V23.4H167.399V21.8H166.799ZM167.099 23.1H152.699V23.7H167.099V23.1ZM152.999 23.4V21.8H152.399V23.4H152.999ZM192.059 18.9H193.659V18.3H192.059V18.9ZM193.359 18.6V20.2H193.959V18.6H193.359ZM193.659 19.9H192.059V20.5H193.659V19.9ZM192.359 20.2V18.6H191.759V20.2H192.359ZM176.059 22.1H177.659V21.5H176.059V22.1ZM177.959 21.8V17H177.359V21.8H177.959ZM177.659 17.3H179.259V16.7H177.659V17.3ZM179.559 17V12.2H178.959V17H179.559ZM179.259 12.5H180.859V11.9H179.259V12.5ZM181.159 12.2V7.4H180.559V12.2H181.159ZM180.859 7.7H182.459V7.1H180.859V7.7ZM182.759 7.4V2.6H182.159V7.4H182.759ZM182.459 2.3H180.859V2.9H182.459V2.3ZM181.159 2.6V1H180.559V2.6H181.159ZM180.859 1.3H196.859V0.7H180.859V1.3ZM196.559 1V5.8H197.159V1H196.559ZM196.859 5.5H195.259V6.1H196.859V5.5ZM195.559 5.8V4.2H194.959V5.8H195.559ZM195.259 3.9H193.659V4.5H195.259V3.9ZM193.959 4.2V2.6H193.359V4.2H193.959ZM193.659 2.3H185.659V2.9H193.659V2.3ZM185.359 2.6V7.4H185.959V2.6H185.359ZM185.659 7.1H184.059V7.7H185.659V7.1ZM183.759 7.4V12.2H184.359V7.4H183.759ZM184.059 12.5H188.859V11.9H184.059V12.5ZM189.159 12.2V10.6H188.559V12.2H189.159ZM188.859 10.9H190.459V10.3H188.859V10.9ZM190.159 10.6V15.4H190.759V10.6H190.159ZM190.459 15.1H188.859V15.7H190.459V15.1ZM189.159 15.4V13.8H188.559V15.4H189.159ZM188.859 13.5H182.459V14.1H188.859V13.5ZM182.159 13.8V17H182.759V13.8H182.159ZM182.459 16.7H180.859V17.3H182.459V16.7ZM180.559 17V21.8H181.159V17H180.559ZM180.859 22.1H190.459V21.5H180.859V22.1ZM190.759 21.8V20.2H190.159V21.8H190.759ZM190.459 20.5H192.059V19.9H190.459V20.5ZM191.759 20.2V23.4H192.359V20.2H191.759ZM192.059 23.1H176.059V23.7H192.059V23.1ZM176.359 23.4V21.8H175.759V23.4H176.359ZM213.825 1.3H215.425V0.7H213.825V1.3ZM215.125 1V4.2H215.725V1H215.125ZM215.425 3.9H213.825V4.5H215.425V3.9ZM214.125 4.2V1H213.525V4.2H214.125ZM202.625 22.1H209.025V21.5H202.625V22.1ZM209.325 21.8V20.2H208.725V21.8H209.325ZM209.025 20.5H210.625V19.9H209.025V20.5ZM210.925 20.2V17H210.325V20.2H210.925ZM210.625 16.7H209.025V17.3H210.625V16.7ZM209.325 17V15.4H208.725V17H209.325ZM209.025 15.1H207.425V15.7H209.025V15.1ZM207.725 15.4V13.8H207.125V15.4H207.725ZM207.425 13.5H205.825V14.1H207.425V13.5ZM206.125 13.8V12.2H205.525V13.8H206.125ZM205.825 11.9H204.225V12.5H205.825V11.9ZM204.525 12.2V10.6H203.925V12.2H204.525ZM204.225 10.3H202.625V10.9H204.225V10.3ZM202.925 10.6V9H202.325V10.6H202.925ZM202.625 8.7H201.025V9.3H202.625V8.7ZM201.325 9V4.2H200.725V9H201.325ZM201.025 4.5H202.625V3.9H201.025V4.5ZM202.925 4.2V2.6H202.325V4.2H202.925ZM202.625 2.9H204.225V2.3H202.625V2.9ZM204.525 2.6V1H203.925V2.6H204.525ZM204.225 1.3H210.625V0.7H204.225V1.3ZM210.325 1V2.6H210.925V1H210.325ZM210.625 2.3H205.825V2.9H210.625V2.3ZM205.525 2.6V4.2H206.125V2.6H205.525ZM205.825 3.9H204.225V4.5H205.825V3.9ZM203.925 4.2V7.4H204.525V4.2H203.925ZM204.225 7.7H205.825V7.1H204.225V7.7ZM205.525 7.4V9H206.125V7.4H205.525ZM205.825 9.3H207.425V8.7H205.825V9.3ZM207.125 9V10.6H207.725V9H207.125ZM207.425 10.9H209.025V10.3H207.425V10.9ZM208.725 10.6V12.2H209.325V10.6H208.725ZM209.025 12.5H210.625V11.9H209.025V12.5ZM210.325 12.2V13.8H210.925V12.2H210.325ZM210.625 14.1H212.225V13.5H210.625V14.1ZM211.925 13.8V15.4H212.525V13.8H211.925ZM212.225 15.7H213.825V15.1H212.225V15.7ZM213.525 15.4V20.2H214.125V15.4H213.525ZM213.825 19.9H212.225V20.5H213.825V19.9ZM211.925 20.2V21.8H212.525V20.2H211.925ZM212.225 21.5H210.625V22.1H212.225V21.5ZM210.325 21.8V23.4H210.925V21.8H210.325ZM210.625 23.1H202.625V23.7H210.625V23.1ZM202.925 23.4V21.8H202.325V23.4H202.925ZM210.625 2.9H212.225V2.3H210.625V2.9ZM211.925 2.6V4.2H212.525V2.6H211.925ZM212.225 3.9H210.625V4.5H212.225V3.9ZM210.925 4.2V2.6H210.325V4.2H210.925ZM212.225 4.5H213.825V3.9H212.225V4.5ZM213.525 4.2V7.4H214.125V4.2H213.525ZM213.825 7.1H212.225V7.7H213.825V7.1ZM212.525 7.4V4.2H211.925V7.4H212.525ZM199.425 17.3H201.025V16.7H199.425V17.3ZM200.725 17V20.2H201.325V17H200.725ZM201.025 19.9H199.425V20.5H201.025V19.9ZM199.725 20.2V17H199.125V20.2H199.725ZM197.825 20.5H199.425V19.9H197.825V20.5ZM199.125 20.2V23.4H199.725V20.2H199.125ZM199.425 23.1H197.825V23.7H199.425V23.1ZM198.125 23.4V20.2H197.525V23.4H198.125ZM201.025 20.5H202.625V19.9H201.025V20.5ZM202.325 20.2V21.8H202.925V20.2H202.325ZM202.625 21.5H201.025V22.1H202.625V21.5ZM201.325 21.8V20.2H200.725V21.8H201.325Z" fill="#7FEE64" mask="url(#path-1-outside-1_497_229)"/>
</svg>
